<?xml version="1.0" standalone="no"?>
<!DOCTYPE svg PUBLIC "-//W3C//DTD SVG 20010904//EN"
 "http://www.w3.org/TR/2001/REC-SVG-20010904/DTD/svg10.dtd">
<svg version="1.0" xmlns="http://www.w3.org/2000/svg"
 width="400.000000pt" height="400.000000pt" viewBox="0 0 400.000000 400.000000"
 preserveAspectRatio="xMidYMid meet">
<metadata>
Created by potrace 1.11, written by Peter Selinger 2001-2013
</metadata>
<g transform="translate(0.000000,400.000000) scale(0.100000,-0.100000)"
fill="#000000" stroke="none">
<path d="M835 3970 c-4 -16 -10 -30 -14 -30 -19 0 -66 -200 -72 -306 -8 -162
-2 -534 10 -616 11 -73 11 -88 -3 -120 -17 -40 -36 -48 -56 -23 -18 22 -29 19
-40 -11 -6 -14 -14 -22 -20 -19 -17 10 -22 -41 -10 -102 25 -129 44 -200 65
-248 34 -75 52 -132 65 -210 7 -38 30 -140 51 -225 39 -153 55 -232 65 -320 8
-65 21 -94 62 -132 21 -19 56 -60 79 -90 30 -41 52 -59 80 -68 21 -7 52 -18
68 -26 17 -7 49 -18 72 -24 23 -6 45 -15 48 -20 3 -6 14 -10 23 -9 14 0 13 2
-3 9 -28 12 1 12 45 1 19 -6 59 -13 89 -16 70 -9 168 -30 204 -44 16 -6 33 -9
38 -5 5 3 9 1 9 -4 0 -11 -116 -132 -127 -132 -4 0 -21 -12 -38 -26 -16 -14
-40 -30 -52 -35 -16 -6 -23 -17 -23 -35 0 -17 -6 -28 -20 -31 -19 -5 -19 -6 5
-25 13 -10 22 -24 19 -31 -2 -7 7 -26 21 -43 14 -16 25 -36 25 -45 0 -8 5 -20
12 -27 9 -9 9 -12 0 -12 -7 0 -12 4 -12 8 0 4 -12 15 -27 24 -33 20 -148 130
-181 173 -13 17 -55 76 -95 132 -94 134 -110 135 -86 8 17 -90 144 -356 272
-565 69 -113 75 -126 84 -180 12 -75 40 -95 139 -95 41 0 74 3 74 8 0 4 -4 7
-9 7 -6 0 11 20 37 44 26 25 49 41 52 37 10 -14 58 -40 130 -70 l73 -31 20 21
c14 15 22 18 30 10 6 -6 19 -11 29 -11 24 0 24 50 0 75 -16 17 -16 20 10 47
29 31 95 42 84 13 -3 -8 0 -15 7 -15 7 0 4 -5 -5 -11 -9 -5 -15 -16 -12 -24 9
-21 33 5 40 44 4 17 10 31 13 31 4 0 16 6 27 14 18 14 17 15 -18 30 -35 15
-91 20 -193 17 -62 -2 -91 4 -110 23 -8 8 -23 12 -32 10 -21 -6 -120 74 -143
115 -8 14 -18 28 -22 29 -17 8 -7 23 12 17 10 -3 27 -2 37 3 23 12 43 5 37
-13 -7 -16 12 -29 21 -15 4 7 22 -3 45 -23 58 -54 140 -80 225 -73 82 6 131
19 128 34 -1 5 9 13 23 16 22 6 24 9 13 22 -7 8 -18 13 -26 10 -21 -8 -15 14
10 34 32 26 17 32 -39 15 -27 -8 -64 -15 -82 -15 -48 0 -176 28 -209 46 l-28
15 35 -7 c34 -6 35 -6 18 13 -10 11 -18 24 -18 29 0 5 -25 38 -55 74 -63 75
-86 118 -93 177 -5 49 10 74 42 72 40 -4 56 1 56 17 0 26 -31 84 -46 84 -7 0
-16 5 -20 11 -5 8 5 9 34 4 35 -6 43 -3 71 24 16 16 33 42 36 58 4 15 10 36
16 45 5 10 9 23 9 29 0 22 42 48 86 55 53 8 83 -8 118 -64 58 -90 86 -102 247
-102 88 0 165 8 314 34 47 8 181 48 238 71 71 29 101 55 129 110 11 22 38 59
59 82 22 24 39 47 39 52 0 5 3 17 7 27 4 10 2 15 -3 11 -11 -6 -12 62 -2 79 4
6 16 46 28 90 12 43 34 115 50 159 42 120 53 167 106 490 21 131 10 281 -27
362 -10 24 -19 48 -19 55 -1 7 -7 24 -16 38 -13 23 -14 20 -10 -45 7 -97 7
-93 0 -158 -4 -45 -3 -57 8 -55 17 4 23 -83 8 -126 -6 -17 -13 -67 -16 -111
-10 -148 -87 -446 -153 -590 -5 -11 -12 -37 -16 -57 -7 -43 -23 -50 -160 -67
-44 -5 -99 -13 -121 -17 -29 -4 -44 -2 -49 7 -6 9 -3 11 9 6 10 -4 15 -3 11 3
-7 12 -32 13 -37 2 -6 -16 -111 -53 -161 -58 -37 -3 -46 -2 -32 5 17 8 17 10
3 10 -10 1 -25 13 -34 27 -16 24 -16 27 3 52 20 26 41 34 136 52 77 14 87 19
84 43 -1 16 5 23 28 28 28 6 28 7 5 8 -15 0 -31 6 -38 13 -6 6 -15 8 -19 4 -4
-4 -1 -11 7 -16 13 -8 12 -10 -2 -10 -9 0 -29 5 -44 10 -30 12 -68 4 -58 -12
5 -7 2 -8 -5 -4 -7 5 -24 4 -39 -2 -15 -5 -70 -22 -122 -38 -52 -16 -97 -31
-100 -35 -3 -3 -36 -12 -75 -18 -129 -22 -173 -45 -142 -76 12 -11 17 -12 20
-2 4 9 6 9 6 -1 1 -8 6 -10 13 -5 7 4 19 8 27 10 15 2 50 -35 51 -54 0 -6 7
-18 15 -27 14 -13 11 -16 -22 -20 -21 -3 -76 -15 -123 -27 -115 -29 -151 -34
-159 -20 -4 6 -8 32 -10 58 -2 46 -14 73 -32 73 -5 0 -32 11 -62 24 -43 20
-212 85 -220 85 -5 0 -34 9 -67 20 -19 7 -53 19 -75 26 -22 7 -62 23 -90 36
-77 35 -118 49 -143 49 -13 0 -21 4 -18 9 3 5 -9 11 -27 14 -17 3 -43 8 -57
11 -20 5 -21 5 -5 -3 17 -7 15 -10 -18 -16 -41 -8 -60 0 -37 16 10 6 4 7 -20
3 -26 -4 -31 -3 -20 5 12 9 10 11 -12 11 -57 0 -76 29 -20 31 l27 1 -30 8
c-43 11 -97 36 -95 44 2 11 -34 66 -43 66 -5 0 -7 7 -3 15 3 8 -4 36 -15 62
-17 41 -20 62 -16 141 5 79 3 94 -10 99 -13 5 -12 8 6 15 12 4 20 12 16 17 -3
6 -12 8 -20 4 -16 -5 -21 12 -6 21 4 3 6 18 4 33 -3 20 -2 24 5 14 11 -15 36
-6 27 10 -8 12 -45 12 -45 -1 0 -5 -3 -10 -7 -10 -5 0 -9 25 -10 55 -2 34 2
55 8 55 6 0 9 -7 5 -15 -3 -9 0 -15 9 -15 8 0 15 7 15 15 0 8 5 15 10 15 17 0
11 18 -7 23 -17 4 -17 5 0 6 9 0 17 6 17 12 0 6 -7 8 -16 5 -12 -4 -15 -2 -10
9 3 9 0 15 -9 15 -8 0 -15 5 -15 11 0 6 7 9 15 6 18 -7 27 6 19 27 -5 13 -9
14 -20 5 -22 -18 -27 -4 -10 30 20 37 20 45 2 38 -12 -5 -14 3 -9 43 5 41 3
49 -13 53 -14 3 -15 5 -3 6 12 1 15 11 11 52 -2 34 0 54 8 59 18 11 22 100 5
100 -8 0 -11 8 -8 21 4 14 12 19 24 16 13 -4 19 0 19 12 0 9 5 22 12 29 8 8 8
15 -1 26 -9 10 -9 16 -1 21 6 4 10 14 8 23 -2 10 5 22 17 29 11 7 15 12 8 13
-24 0 -1 30 23 30 21 0 24 4 20 25 -3 14 0 25 5 25 6 0 7 5 3 12 -5 8 2 9 27
5 32 -6 33 -6 15 8 -20 16 -21 15 22 15 4 0 7 -10 7 -23 0 -18 -5 -21 -28 -19
-15 2 -27 -1 -27 -6 0 -6 10 -8 23 -5 18 4 19 3 7 -6 -12 -9 -11 -11 9 -9 18
2 27 -5 40 -29 19 -39 41 -43 41 -7 0 15 4 23 10 19 6 -4 8 -16 4 -27 -5 -18
-3 -20 18 -15 30 8 42 -1 27 -19 -8 -10 -7 -18 3 -32 13 -20 18 -22 43 -22 30
0 14 -18 -22 -26 l-38 -8 35 -5 c29 -5 36 -11 38 -33 2 -16 6 -28 8 -28 17 0
34 34 36 69 1 34 4 40 18 36 27 -9 45 21 31 51 -14 32 -14 32 7 37 14 3 13 4
-3 4 -11 0 -33 5 -48 11 -16 7 -49 12 -73 12 -29 0 -43 4 -39 11 4 5 18 9 30
7 13 -2 23 2 22 7 -1 6 -9 10 -17 9 -9 0 -16 8 -16 18 0 13 7 17 30 15 16 -1
31 3 33 10 3 8 -5 11 -22 10 -39 -3 -57 29 -30 50 14 10 16 17 8 20 -7 3 -13
11 -13 18 0 7 -5 15 -12 17 -8 3 -8 9 -2 19 11 17 12 99 2 92 -5 -2 -8 2 -8
10 0 9 13 16 35 19 19 2 35 0 35 -4 0 -17 17 -7 28 17 7 15 8 27 2 30 -6 4
-10 -3 -10 -14 0 -12 -4 -21 -10 -21 -5 0 -10 18 -10 40 0 44 6 49 26 23 12
-17 13 -17 14 -1 0 9 10 18 23 20 22 3 39 48 18 48 -6 0 -11 7 -11 15 0 8 -4
15 -10 15 -5 0 -10 -4 -10 -8 0 -5 -7 -17 -16 -28 -8 -10 -13 -13 -9 -6 3 6 0
12 -7 12 -8 1 -6 6 6 15 18 14 16 15 -27 15 -26 0 -47 -4 -47 -10 0 -5 -12
-10 -26 -10 -14 0 -22 4 -19 10 4 6 -38 9 -115 9 -88 -1 -118 -4 -114 -12 5
-8 2 -7 -7 1 -7 6 -27 12 -45 12 -28 0 -33 -4 -39 -30z m25 -9 c0 -16 -6 -31
-13 -34 -11 -4 -11 2 -3 29 13 42 16 42 16 5z m197 23 c-3 -3 -12 -4 -19 -1
-8 3 -5 6 6 6 11 1 17 -2 13 -5z m-173 -30 c3 -8 2 -12 -4 -9 -6 3 -10 10 -10
16 0 14 7 11 14 -7z m91 -2 c-3 -3 -11 0 -18 7 -9 10 -8 11 6 5 10 -3 15 -9
12 -12z m260 8 c18 -8 17 -9 -7 -9 -16 -1 -28 4 -28 9 0 12 8 12 35 0z m-95
-23 c10 -4 8 -6 -7 -6 -16 -1 -23 5 -23 17 0 10 3 13 8 6 4 -6 14 -14 22 -17z
m168 -4 c-10 -2 -28 -2 -40 0 -13 2 -5 4 17 4 22 1 32 -1 23 -4z m-301 -38 c0
-8 -4 -12 -9 -9 -5 3 -6 10 -3 15 9 13 12 11 12 -6z m233 -20 c0 -19 -4 -35
-10 -35 -9 0 -11 46 -3 63 8 15 13 6 13 -28z m-70 15 c0 -5 -4 -10 -10 -10 -5
0 -10 5 -10 10 0 6 5 10 10 10 6 0 10 -4 10 -10z m-35 -20 c3 -5 1 -10 -4 -10
-6 0 -11 5 -11 10 0 6 2 10 4 10 3 0 8 -4 11 -10z m66 -23 c-10 -9 -11 -8 -5
6 3 10 9 15 12 12 3 -3 0 -11 -7 -18z m-313 -8 c-20 -13 -28 -11 -22 5 3 8 12
12 21 9 12 -5 12 -7 1 -14z m-44 -1 c-3 -4 -12 -8 -20 -8 -8 0 -14 4 -14 8 0
4 9 8 19 8 11 0 17 -4 15 -8z m46 -43 c0 -8 -5 -15 -11 -15 -5 0 -8 4 -4 9 3
5 -5 12 -17 14 -20 4 -19 4 5 6 18 1 27 -4 27 -14z m63 -2 c-7 -2 -19 -2 -25
0 -7 3 -2 5 12 5 14 0 19 -2 13 -5z m217 -9 c0 -8 -4 -12 -10 -9 -5 3 -10 10
-10 16 0 5 5 9 10 9 6 0 10 -7 10 -16z m-213 -10 c-3 -3 -12 -4 -19 -1 -8 3
-5 6 6 6 11 1 17 -2 13 -5z m-120 -20 c-3 -3 -12 -4 -19 -1 -8 3 -5 6 6 6 11
1 17 -2 13 -5z m100 -10 c-3 -3 -12 -4 -19 -1 -8 3 -5 6 6 6 11 1 17 -2 13 -5z
m213 -24 c0 -5 -5 -10 -11 -10 -5 0 -7 5 -4 10 3 6 8 10 11 10 2 0 4 -4 4 -10z
m-263 -15 c0 -8 -4 -15 -9 -15 -10 0 -11 14 -1 23 9 10 10 9 10 -8z m60 -21
c-3 -3 -12 -4 -19 -1 -8 3 -5 6 6 6 11 1 17 -2 13 -5z m188 -14 c11 18 35 -23
28 -48 -3 -12 -10 -22 -15 -22 -5 0 -6 5 -3 11 4 6 -2 19 -14 30 -12 11 -21
25 -21 32 0 8 3 8 9 -2 6 -10 10 -10 16 -1z m-152 -27 c-7 -2 -19 -2 -25 0 -7
3 -2 5 12 5 14 0 19 -2 13 -5z m132 -23 c3 -6 -1 -7 -9 -4 -18 7 -21 14 -7 14
6 0 13 -4 16 -10z m-158 -16 c-3 -3 -12 -4 -19 -1 -8 3 -5 6 6 6 11 1 17 -2
13 -5z m91 -5 c-18 -12 -48 -11 -48 0 0 5 14 9 31 9 20 -1 26 -4 17 -9z m102
-29 c0 -5 -4 -10 -10 -10 -5 0 -10 5 -10 10 0 6 5 10 10 10 6 0 10 -4 10 -10z
m90 -100 c0 -5 -4 -10 -10 -10 -5 0 -10 5 -10 10 0 6 5 10 10 10 6 0 10 -4 10
-10z m46 -15 c3 -14 10 -25 15 -25 5 0 9 -7 9 -15 0 -36 -38 -4 -46 39 -6 33
14 34 22 1z m-46 -9 c0 -3 -4 -8 -10 -11 -5 -3 -10 -1 -10 4 0 6 5 11 10 11 6
0 10 -2 10 -4z m28 -47 c-2 -6 -8 -10 -13 -10 -5 0 -11 4 -13 10 -2 6 4 11 13
11 9 0 15 -5 13 -11z m-418 -39 c0 -5 -8 -10 -17 -10 -15 0 -16 2 -3 10 19 12
20 12 20 0z m-3 -172 c-3 -8 -6 -5 -6 6 -1 11 2 17 5 13 3 -3 4 -12 1 -19z m1
-393 c-3 -3 -9 2 -12 12 -6 14 -5 15 5 6 7 -7 10 -15 7 -18z m2449 -427 c-3
-7 -5 -2 -5 12 0 14 2 19 5 13 2 -7 2 -19 0 -25z m-2470 -30 c-2 -13 -4 -5 -4
17 -1 22 1 32 4 23 2 -10 2 -28 0 -40z m42 -108 c6 -4 25 -48 52 -118 5 -13 9
-33 10 -45 0 -21 1 -21 9 -2 7 16 9 13 9 -16 1 -20 4 -39 9 -43 4 -4 7 -11 7
-15 0 -3 10 -18 23 -31 12 -14 25 -35 28 -47 4 -13 10 -20 15 -17 5 3 9 -2 9
-10 0 -10 -6 -13 -16 -9 -12 4 -15 1 -12 -13 2 -13 13 -20 33 -23 26 -3 28 -4
10 -11 l-20 -9 20 0 c17 -1 17 -3 5 -11 -12 -8 -11 -10 8 -10 12 0 22 -4 22
-10 0 -11 -46 -13 -103 -3 -35 5 -38 8 -32 30 3 14 2 30 -3 36 -5 7 -14 32
-21 57 -7 25 -19 59 -27 75 -13 29 -45 157 -65 259 -11 59 2 87 15 31 5 -22
12 -42 15 -45z m2362 -107 c-12 -20 -14 -14 -5 12 4 9 9 14 11 11 3 -2 0 -13
-6 -23z m-20 -64 c-5 -13 -10 -19 -10 -12 -1 15 10 45 15 40 3 -2 0 -15 -5
-28z m-2184 15 c-3 -3 -12 -4 -19 -1 -8 3 -5 6 6 6 11 1 17 -2 13 -5z m-158
-149 l0 -20 -9 20 c-5 11 -9 27 -9 35 -1 13 0 13 9 0 5 -8 9 -24 9 -35z m376
-55 c3 -6 -1 -7 -9 -4 -18 7 -21 14 -7 14 6 0 13 -4 16 -10z m1890 -60 c-3 -5
-18 -10 -33 -9 l-27 1 25 8 c35 11 42 11 35 0z m-110 -21 c-22 -4 -51 -8 -65
-7 -23 0 -22 1 5 8 17 4 46 8 65 8 l35 0 -40 -9z m-112 -16 c-7 -2 -19 -2 -25
0 -7 3 -2 5 12 5 14 0 19 -2 13 -5z m-140 -20 c-7 -2 -19 -2 -25 0 -7 3 -2 5
12 5 14 0 19 -2 13 -5z m265 -55 c4 -87 -22 -140 -87 -172 -126 -65 -363 -115
-541 -117 -62 0 -88 -3 -75 -9 18 -8 17 -9 -8 -9 -17 -1 -38 9 -53 24 -14 14
-28 25 -32 25 -9 0 -44 61 -38 67 2 2 14 -12 26 -31 12 -20 29 -36 38 -36 13
0 12 4 -4 23 -11 12 -28 35 -38 51 -13 20 -20 25 -26 16 -5 -8 -10 -2 -15 19
-13 59 25 80 206 110 147 25 149 25 150 4 0 -14 3 -13 11 5 6 13 17 21 24 18
7 -3 15 0 17 7 3 9 9 9 25 0 16 -10 21 -9 25 1 7 17 278 65 352 63 l40 -2 3
-57z m-1848 -9 c41 -5 80 -10 87 -11 8 -1 9 -7 2 -19 -7 -15 -6 -17 6 -13 8 4
15 1 15 -5 0 -6 9 -11 20 -11 10 0 24 -8 29 -17 6 -10 11 -14 11 -9 0 5 8 2
18 -7 9 -9 31 -19 47 -23 25 -6 194 -15 322 -17 24 0 30 -4 22 -13 -5 -6 -8
-17 -7 -24 6 -23 -48 -52 -111 -59 -36 -4 -64 -4 -68 2 -3 5 -17 7 -32 4 -29
-6 -121 10 -135 24 -6 5 -20 9 -33 9 -13 0 -31 4 -41 9 -22 12 -192 91 -196
91 -1 0 -3 -7 -3 -15 0 -17 24 -28 39 -18 6 3 8 1 5 -4 -8 -13 6 -24 63 -47
25 -10 59 -25 75 -33 l30 -14 -44 6 c-24 3 -67 17 -96 30 -28 14 -56 25 -61
25 -5 0 -15 9 -22 20 -7 11 -21 20 -31 20 -14 0 -18 -5 -14 -20 3 -11 10 -20
16 -20 6 0 18 -7 27 -15 20 -19 171 -72 226 -81 21 -3 55 -9 74 -14 l35 -8
-43 -1 c-44 -1 -225 37 -297 62 -31 10 -47 25 -71 65 -29 48 -51 133 -38 153
7 12 79 11 174 -2z m290 -240 c16 -6 3 -7 -40 -4 -35 3 -69 10 -75 16 -11 12
69 3 115 -12z m123 -16 c-18 -2 -48 -2 -65 0 -18 2 -4 4 32 4 36 0 50 -2 33
-4z m-5 -30 c-21 -2 -57 -2 -80 0 -24 2 -7 4 37 4 44 0 63 -2 43 -4z"/>
<path d="M2973 1588 c-13 -6 -23 -15 -23 -20 0 -4 -6 -8 -14 -8 -7 0 -19 -7
-26 -15 -20 -25 4 -17 48 15 52 37 58 49 15 28z"/>
<path d="M2850 1520 c-18 -12 -2 -12 25 0 13 6 15 9 5 9 -8 0 -22 -4 -30 -9z"/>
<path d="M2640 1460 c-20 -6 -21 -8 -5 -8 11 0 29 3 40 8 25 11 -1 11 -35 0z"/>
<path d="M2548 1443 c12 -2 32 -2 45 0 12 2 2 4 -23 4 -25 0 -35 -2 -22 -4z"/>
<path d="M2332 1429 c27 -5 75 -5 115 0 66 8 65 8 -47 9 -95 0 -107 -2 -68 -9z"/>
<path d="M1327 1549 c19 -19 25 -21 35 -10 7 7 9 11 3 10 -5 -2 -21 3 -35 10
l-25 13 22 -23z"/>
<path d="M1436 1500 c5 -5 25 -12 44 -15 36 -5 29 -1 -25 16 -20 6 -26 6 -19
-1z"/>
<path d="M1335 3991 c-2 -5 4 -11 15 -14 11 -3 20 -2 20 3 0 12 -28 21 -35 11z"/>
<path d="M1350 3930 c0 -5 5 -10 11 -10 5 0 7 5 4 10 -3 6 -8 10 -11 10 -2 0
-4 -4 -4 -10z"/>
<path d="M1305 3901 c-3 -5 -1 -12 5 -16 5 -3 10 1 10 9 0 18 -6 21 -15 7z"/>
<path d="M1410 3900 c0 -5 5 -10 10 -10 6 0 10 5 10 10 0 6 -4 10 -10 10 -5 0
-10 -4 -10 -10z"/>
<path d="M1365 3870 c3 -5 10 -10 16 -10 5 0 9 5 9 10 0 6 -7 10 -16 10 -8 0
-12 -4 -9 -10z"/>
<path d="M1300 3850 c0 -5 5 -10 10 -10 6 0 10 5 10 10 0 6 -4 10 -10 10 -5 0
-10 -4 -10 -10z"/>
<path d="M1332 3804 c2 -22 -2 -29 -17 -32 -41 -8 -33 -17 15 -17 26 0 43 3
37 7 -7 4 -12 19 -12 34 0 15 -6 29 -13 32 -10 3 -13 -4 -10 -24z"/>
<path d="M1200 3780 c0 -6 7 -10 15 -10 8 0 15 2 15 4 0 2 -7 6 -15 10 -8 3
-15 1 -15 -4z"/>
<path d="M1295 3731 c-8 -13 32 -33 53 -28 12 3 11 5 -5 6 -13 1 -23 7 -23 16
0 17 -16 20 -25 6z"/>
<path d="M1231 3716 c-8 -10 -9 -16 -1 -21 5 -3 13 1 16 10 9 22 -1 29 -15 11z"/>
<path d="M1265 3710 c-3 -5 -1 -10 4 -10 6 0 11 5 11 10 0 6 -2 10 -4 10 -3 0
-8 -4 -11 -10z"/>
<path d="M1285 3680 c3 -5 13 -10 21 -10 8 0 14 5 14 10 0 6 -9 10 -21 10 -11
0 -17 -4 -14 -10z"/>
<path d="M1238 3673 c7 -3 16 -2 19 1 4 3 -2 6 -13 5 -11 0 -14 -3 -6 -6z"/>
<path d="M1230 3630 c0 -23 22 -27 39 -6 9 11 8 15 -5 20 -26 10 -34 7 -34
-14z"/>
<path d="M1375 3570 c-3 -5 -1 -10 4 -10 6 0 11 5 11 10 0 6 -2 10 -4 10 -3 0
-8 -4 -11 -10z"/>
<path d="M1455 3519 c-9 -14 4 -27 13 -13 4 6 14 14 22 17 10 4 8 6 -7 6 -12
1 -25 -4 -28 -10z"/>
<path d="M978 3468 c9 -9 15 -9 24 0 9 9 7 12 -12 12 -19 0 -21 -3 -12 -12z"/>
<path d="M957 3428 c-9 -31 -2 -33 17 -3 13 20 14 25 2 25 -7 0 -16 -10 -19
-22z"/>
<path d="M1350 3440 c0 -5 5 -10 11 -10 5 0 7 5 4 10 -3 6 -8 10 -11 10 -2 0
-4 -4 -4 -10z"/>
<path d="M1123 3433 c-17 -6 -16 -23 1 -23 8 0 16 7 20 15 6 15 1 17 -21 8z"/>
<path d="M997 3408 c-9 -31 -2 -33 17 -3 13 20 14 25 2 25 -7 0 -16 -10 -19
-22z"/>
<path d="M1035 3399 c-4 -6 -5 -12 -2 -15 2 -3 7 2 10 11 7 17 1 20 -8 4z"/>
<path d="M1140 3384 c0 -8 5 -12 10 -9 6 3 10 10 10 16 0 5 -4 9 -10 9 -5 0
-10 -7 -10 -16z"/>
<path d="M1081 3374 c-1 -18 26 -37 34 -24 3 5 0 10 -9 10 -8 0 -17 6 -19 13
-4 7 -6 8 -6 1z"/>
<path d="M1394 3364 c-7 -3 -10 -14 -7 -25 5 -18 6 -19 19 -2 10 14 15 16 25
6 17 -17 29 -16 29 2 0 8 -6 15 -14 15 -8 0 -20 2 -28 4 -7 3 -18 2 -24 0z"/>
<path d="M1530 3360 c-9 -6 -10 -10 -3 -10 6 0 15 5 18 10 8 12 4 12 -15 0z"/>
<path d="M1311 3341 c-8 -5 -11 -16 -8 -25 10 -25 27 -19 27 9 0 28 0 28 -19
16z"/>
<path d="M1330 3264 c0 -8 5 -12 10 -9 6 3 10 10 10 16 0 5 -4 9 -10 9 -5 0
-10 -7 -10 -16z"/>
<path d="M1360 3265 c0 -8 5 -15 10 -15 6 0 10 7 10 15 0 8 -4 15 -10 15 -5 0
-10 -7 -10 -15z"/>
<path d="M1250 3235 c0 -8 5 -15 10 -15 6 0 10 7 10 15 0 8 -4 15 -10 15 -5 0
-10 -7 -10 -15z"/>
<path d="M1390 3230 c0 -5 5 -10 10 -10 6 0 10 5 10 10 0 6 -4 10 -10 10 -5 0
-10 -4 -10 -10z"/>
<path d="M3460 2815 c-12 -15 -5 -55 11 -55 5 0 9 16 9 35 0 39 -2 41 -20 20z"/>
<path d="M916 2641 c-12 -5 -15 -10 -9 -14 6 -4 16 0 23 8 14 17 13 17 -14 6z"/>
<path d="M1005 2240 c3 -5 13 -10 21 -10 8 0 12 5 9 10 -3 6 -13 10 -21 10 -8
0 -12 -4 -9 -10z"/>
<path d="M988 2203 c7 -3 16 -2 19 1 4 3 -2 6 -13 5 -11 0 -14 -3 -6 -6z"/>
<path d="M1098 2123 c7 -3 16 -2 19 1 4 3 -2 6 -13 5 -11 0 -14 -3 -6 -6z"/>
<path d="M3045 2027 c-15 -12 -16 -15 -2 -20 9 -3 18 1 21 10 9 22 3 25 -19
10z"/>
<path d="M2945 1950 c-19 -7 -19 -8 -2 -15 10 -4 23 -3 29 3 14 14 -3 21 -27
12z"/>
<path d="M1180 1390 c0 -5 5 -10 10 -10 6 0 10 5 10 10 0 6 -4 10 -10 10 -5 0
-10 -4 -10 -10z"/>
<path d="M2972 1228 c-22 -48 -43 -100 -47 -117 -20 -91 -102 -270 -161 -352
-19 -26 -34 -49 -34 -53 0 -3 -7 -14 -16 -23 -26 -29 -104 -155 -104 -168 0
-7 -7 -18 -15 -25 -20 -16 -3 -39 17 -23 7 5 28 15 46 23 28 11 35 10 51 -5
18 -16 20 -16 31 4 41 77 132 319 192 511 11 36 30 92 43 125 28 73 48 160 42
177 -2 7 -22 -26 -45 -74z"/>
<path d="M2578 1029 c-27 -15 -22 -29 10 -29 35 0 45 9 31 27 -13 15 -18 16
-41 2z"/>
<path d="M2345 285 c-16 -14 -38 -25 -47 -25 -9 0 -21 -6 -25 -13 -9 -14 -48
-33 -83 -41 -15 -3 -32 -19 -44 -41 -18 -32 -46 -48 -46 -25 0 6 -9 10 -20 10
-27 0 -25 -13 5 -41 14 -13 35 -39 46 -56 11 -18 26 -33 32 -33 7 0 35 28 64
63 29 34 64 75 78 91 14 16 25 33 25 37 0 4 6 14 13 21 19 19 47 61 47 70 0
14 -14 8 -45 -17z"/>
</g>
</svg>
